<?xml version="1.0" encoding="UTF-8" standalone="no"?>
<!-- Generator: Adobe Illustrator 18.0.0, SVG Export Plug-In . SVG Version: 6.00 Build 0)  -->

<svg
   xmlns:dc="http://purl.org/dc/elements/1.1/"
   xmlns:cc="http://creativecommons.org/ns#"
   xmlns:rdf="http://www.w3.org/1999/02/22-rdf-syntax-ns#"
   xmlns:svg="http://www.w3.org/2000/svg"
   xmlns="http://www.w3.org/2000/svg"
   xmlns:sodipodi="http://sodipodi.sourceforge.net/DTD/sodipodi-0.dtd"
   xmlns:inkscape="http://www.inkscape.org/namespaces/inkscape"
   version="1.1"
   id="Layer_1"
   x="0px"
   y="0px"
   viewBox="0 0 307.70001 307.70003"
   enable-background="new 0 0 639 524.6"
   xml:space="preserve"
   sodipodi:docname="logo_white.svg"
   width="307.70001"
   height="307.70001"
   inkscape:version="0.92.1 r15371"
   inkscape:export-filename="D:\Logo All Format With Update\RedG Logo\SVG.svg.png"
   inkscape:export-xdpi="599.02502"
   inkscape:export-ydpi="599.02502"><metadata
     id="metadata93"><rdf:RDF><cc:Work
         rdf:about=""><dc:format>image/svg+xml</dc:format><dc:type
           rdf:resource="http://purl.org/dc/dcmitype/StillImage" /><dc:title></dc:title></cc:Work></rdf:RDF></metadata><defs
     id="defs91" /><sodipodi:namedview
     pagecolor="#ffffff"
     bordercolor="#666666"
     borderopacity="1"
     objecttolerance="10"
     gridtolerance="10"
     guidetolerance="10"
     inkscape:pageopacity="0"
     inkscape:pageshadow="2"
     inkscape:window-width="1920"
     inkscape:window-height="1018"
     id="namedview89"
     showgrid="false"
     inkscape:zoom="0.5769899"
     inkscape:cx="-90.891654"
     inkscape:cy="37.513239"
     inkscape:window-x="-8"
     inkscape:window-y="32"
     inkscape:window-maximized="1"
     inkscape:current-layer="g82"
     fit-margin-top="10"
     fit-margin-left="10"
     fit-margin-right="10"
     fit-margin-bottom="10"
     inkscape:pagecheckerboard="true" /><g
     id="g84"
     transform="translate(-170.1,-31.599996)"><path
       style="fill:#fffffe;fill-opacity:1"
       inkscape:connector-curvature="0"
       id="path74"
       d="M 451.9,120.5 V 120 h -0.1 C 427.9,73 379.6,41.7 324,41.7 c -79.3,0 -143.9,64.5 -143.9,143.8 0,79.3 64.5,143.8 143.9,143.8 79.3,0 143.8,-64.6 143.8,-143.9 -0.1,-23.3 -5.9,-45.4 -15.9,-64.9 z m -128,-63.7 c 47,0 88.1,25.2 110.6,63.2 H 391 C 373.9,102 350.2,91.6 323.9,91.6 286.4,91.6 254,113.7 239,145.5 L 219.1,111 C 242.5,78.2 280.7,56.8 323.9,56.8 Z m 0,207.6 c -43.5,0 -79,-35.4 -79,-79 0,-43.6 35.4,-79 79,-79 43.6,0 79,35.4 79,79 0,43.6 -35.4,79 -79,79 z M 195.1,185.5 c 0,-21.7 5.4,-42.1 14.9,-60.1 l 22.4,38.7 c -1.6,6.9 -2.5,14 -2.5,21.3 0,51.9 42.2,94 94,94 2.7,0 5.3,-0.2 7.9,-0.4 l -21.6,34.4 C 245.6,306.7 195.1,251.9 195.1,185.5 Z m 132.2,128.6 24.3,-38.8 C 390,263.5 418,227.3 418,185.1 418,166 412.2,148 402.4,133 h 39.5 c 7,16 11,33.7 11,52.1 -0.1,69.9 -56.2,127.2 -125.6,129 z" /><g
       id="g82"><path
         style="fill:#ffffff;fill-opacity:1"
         inkscape:connector-curvature="0"
         id="path76"
         d="M 277.9,205.6 V 230 c 48,30.1 83,0 83,0 v -24.4 c -41,38.2 -83,0 -83,0 z" /><path
         style="fill:#ffffff;fill-opacity:1"
         inkscape:connector-curvature="0"
         id="path78"
         d="m 277.9,168 v 24.4 c 48,30.1 83,0 83,0 V 168 c -41,38.2 -83,0 -83,0 z" /><ellipse
         style="fill:#ffffff;fill-opacity:1"
         id="ellipse80"
         ry="24.5"
         rx="41.799999"
         cy="147.2"
         cx="319.79999" /></g></g></svg>