<?xml version="1.0" standalone="no"?>
<!DOCTYPE svg PUBLIC "-//W3C//DTD SVG 20010904//EN"
 "http://www.w3.org/TR/2001/REC-SVG-20010904/DTD/svg10.dtd">
<svg version="1.0" xmlns="http://www.w3.org/2000/svg"
 width="2509.000000pt" height="2509.000000pt" viewBox="0 0 2509.000000 2509.000000"
 preserveAspectRatio="xMidYMid meet">
<metadata>
Created by potrace 1.11, written by Peter Selinger 2001-2013
</metadata>
<g transform="translate(0.000000,2509.000000) scale(0.100000,-0.100000)"
fill="#000000" stroke="none">
<path d="M12128 25085 c-2 -1 -88 -6 -193 -10 -104 -3 -212 -8 -240 -10 -27
-2 -86 -7 -130 -10 -44 -3 -98 -7 -120 -9 -22 -3 -76 -7 -120 -10 -44 -4 -91
-8 -105 -11 -14 -2 -52 -7 -85 -10 -90 -8 -145 -15 -285 -35 -36 -5 -87 -12
-115 -15 -27 -4 -57 -8 -65 -10 -8 -2 -37 -7 -65 -10 -27 -4 -57 -8 -65 -10
-8 -2 -31 -7 -50 -10 -246 -40 -629 -118 -865 -176 -66 -17 -131 -32 -144 -35
-14 -3 -28 -7 -31 -9 -4 -2 -20 -6 -36 -9 -68 -12 -597 -171 -814 -245 -489
-165 -877 -321 -1345 -538 -170 -80 -695 -348 -730 -373 -5 -4 -39 -23 -75
-42 -75 -41 -236 -133 -329 -189 -34 -22 -67 -39 -71 -39 -5 0 -10 -4 -12 -8
-1 -4 -21 -18 -43 -31 -259 -153 -844 -551 -1005 -684 -8 -7 -31 -23 -50 -37
-19 -13 -37 -27 -40 -30 -3 -3 -45 -37 -95 -75 -80 -62 -318 -254 -385 -311
-416 -354 -907 -831 -1254 -1218 -15 -17 -166 -193 -340 -396 -155 -181 -486
-625 -677 -910 -245 -364 -391 -605 -654 -1085 -184 -335 -358 -693 -502
-1030 -35 -82 -68 -159 -73 -170 -39 -82 -200 -518 -290 -785 -121 -361 -305
-1037 -355 -1311 -4 -19 -8 -38 -9 -44 -10 -45 -16 -74 -20 -98 -3 -15 -7 -35
-10 -45 -3 -9 -7 -35 -11 -56 -3 -21 -7 -48 -10 -60 -3 -12 -7 -34 -10 -51 -3
-16 -12 -68 -20 -115 -8 -47 -17 -102 -21 -124 -3 -21 -7 -46 -9 -55 -1 -9 -6
-41 -10 -71 -4 -30 -9 -64 -11 -74 -4 -24 -26 -174 -29 -201 -3 -29 -15 -134
-21 -174 -2 -18 -7 -61 -10 -95 -2 -33 -7 -70 -9 -81 -2 -11 -7 -58 -10 -105
-4 -47 -8 -101 -10 -120 -2 -19 -7 -75 -10 -125 -4 -49 -8 -112 -10 -140 -27
-351 -27 -1244 0 -1605 2 -30 7 -93 10 -140 3 -47 8 -103 10 -125 2 -22 7 -71
10 -110 3 -38 8 -88 10 -110 11 -108 16 -152 20 -175 2 -14 6 -52 10 -85 6
-60 52 -388 61 -435 2 -14 9 -54 14 -90 5 -36 12 -78 15 -95 19 -102 38 -203
41 -220 2 -11 6 -31 9 -45 17 -90 67 -329 76 -364 6 -22 13 -52 16 -66 8 -47
65 -275 110 -440 24 -91 46 -172 48 -180 2 -8 26 -89 54 -180 103 -339 250
-762 356 -1020 158 -386 253 -597 405 -900 156 -312 247 -481 404 -745 39 -66
75 -128 81 -137 79 -134 389 -604 540 -817 112 -160 127 -182 142 -200 7 -9
40 -52 72 -96 33 -44 64 -84 68 -90 5 -5 40 -50 78 -100 125 -160 507 -614
544 -645 3 -3 51 -54 106 -115 97 -106 490 -502 591 -595 115 -106 284 -259
349 -315 38 -33 76 -65 83 -72 7 -7 34 -29 60 -50 26 -21 52 -43 58 -49 6 -5
31 -26 54 -45 24 -18 70 -57 104 -84 336 -277 826 -625 1246 -887 974 -607
1986 -1067 3080 -1402 260 -79 696 -193 945 -246 55 -11 118 -25 140 -30 22
-4 65 -13 95 -19 30 -6 66 -14 80 -17 14 -2 43 -7 65 -10 22 -3 56 -9 75 -14
19 -5 53 -11 75 -15 23 -3 50 -7 60 -9 11 -2 40 -7 65 -11 25 -4 54 -9 65 -11
11 -2 40 -6 65 -9 25 -3 52 -7 60 -10 8 -2 38 -7 65 -10 28 -3 84 -9 125 -15
41 -5 95 -12 120 -15 25 -3 61 -7 80 -10 19 -2 85 -9 145 -15 61 -6 128 -13
150 -15 37 -4 127 -11 255 -20 378 -26 1371 -26 1630 0 19 2 87 6 150 10 63 3
133 8 155 10 65 5 177 16 215 20 19 3 64 7 100 10 60 6 342 41 400 50 14 2 48
7 75 10 28 4 57 8 65 10 8 2 35 7 60 10 25 3 56 8 70 10 14 3 36 8 50 10 14 3
50 9 80 15 84 14 163 29 185 34 11 2 67 13 125 25 370 73 886 209 1305 345
199 64 575 197 640 226 11 5 88 36 170 69 152 60 323 132 450 190 39 18 102
46 140 64 75 33 567 278 650 324 162 88 408 227 525 297 74 44 143 85 152 91
9 5 48 29 85 53 37 24 77 48 87 55 77 47 436 289 551 371 450 321 891 679
1285 1045 228 211 602 590 800 811 47 52 87 97 90 100 4 4 158 183 202 235
271 321 571 724 833 1120 198 300 300 469 520 860 98 174 423 837 526 1073 11
23 28 62 39 87 11 25 43 103 71 173 28 70 57 141 64 157 34 77 150 400 225
625 120 363 234 778 325 1180 41 183 118 591 140 745 3 22 10 65 15 95 5 30
12 74 15 98 3 23 8 61 11 85 4 23 7 53 9 67 4 36 16 131 20 160 2 14 7 57 11
95 3 39 8 77 9 86 2 8 6 53 10 100 4 46 8 100 10 119 4 43 17 218 20 280 1 25
6 113 11 195 16 286 9 1154 -11 1380 -2 22 -6 83 -9 135 -4 52 -8 111 -11 130
-2 19 -6 71 -10 115 -3 44 -8 94 -10 110 -3 17 -7 53 -9 80 -12 131 -61 496
-82 615 -2 14 -8 52 -14 85 -5 33 -14 85 -19 115 -34 185 -52 281 -62 325 -6
28 -13 64 -16 80 -22 131 -148 636 -220 880 -30 105 -59 204 -63 220 -4 17
-41 131 -82 255 -146 436 -292 804 -503 1270 -62 136 -426 853 -507 1000 -42
74 -88 158 -103 185 -22 40 -206 346 -258 430 -61 97 -293 443 -387 575 -112
157 -315 426 -365 484 -5 6 -39 47 -75 91 -74 92 -303 363 -351 415 -283 311
-384 415 -632 656 -384 373 -855 774 -1247 1059 -52 38 -99 73 -105 78 -35 28
-207 148 -347 242 -137 92 -219 145 -484 312 -49 31 -464 273 -468 273 -2 0
-33 16 -68 36 -34 20 -94 53 -133 74 -80 43 -572 290 -579 290 -2 0 -42 17
-88 39 -105 49 -407 181 -413 181 -2 0 -28 11 -57 23 -29 13 -120 50 -203 82
-82 31 -159 61 -170 66 -70 31 -588 205 -780 263 -123 37 -328 95 -355 101 -8
2 -94 24 -190 48 -235 61 -600 141 -740 163 -19 3 -42 7 -50 9 -8 2 -31 7 -50
10 -19 3 -71 12 -115 20 -44 8 -100 17 -125 20 -25 3 -70 10 -100 15 -30 5
-75 12 -100 15 -25 3 -56 8 -70 10 -14 3 -50 7 -80 10 -30 3 -71 7 -90 10 -91
12 -164 20 -275 30 -27 3 -75 7 -105 10 -30 3 -82 7 -115 9 -137 11 -244 18
-310 22 -72 5 -1122 13 -1127 9z m1007 -989 c214 -12 374 -23 450 -31 22 -2
69 -7 105 -10 120 -11 301 -31 360 -40 31 -5 147 -22 215 -31 28 -3 59 -8 70
-10 11 -2 63 -11 115 -19 52 -9 104 -18 115 -20 11 -2 67 -13 125 -24 141 -27
273 -55 405 -86 61 -14 121 -28 135 -31 59 -12 309 -80 480 -130 102 -30 193
-56 204 -59 49 -12 479 -160 621 -213 242 -91 482 -190 641 -262 35 -17 66
-30 68 -30 8 0 252 -117 446 -214 189 -95 255 -130 350 -183 19 -11 67 -37
105 -58 69 -38 424 -247 520 -307 160 -100 649 -431 700 -475 6 -5 33 -25 60
-46 28 -20 55 -40 60 -44 6 -5 48 -37 95 -73 269 -204 593 -479 864 -734 195
-183 513 -504 631 -637 17 -19 64 -72 105 -119 41 -46 81 -91 88 -99 28 -29
212 -251 288 -346 173 -217 439 -581 565 -775 20 -30 59 -90 88 -133 28 -43
51 -82 51 -87 0 -5 3 -10 8 -12 4 -1 52 -77 106 -168 55 -91 111 -183 126
-205 50 -77 63 -133 39 -177 -13 -24 -80 -55 -135 -63 -43 -6 -239 -6 -294 0
-19 2 -82 6 -140 10 -58 4 -107 9 -110 10 -22 13 -359 23 -430 13 -50 -7 -945
-17 -1875 -21 -325 -1 -689 7 -795 18 -19 2 -75 6 -125 10 -49 4 -97 8 -105
10 -8 2 -49 6 -90 10 -41 4 -79 8 -83 8 -4 1 -63 58 -130 127 -67 68 -125 127
-128 130 -4 3 -58 53 -120 111 -186 174 -481 420 -650 542 -13 9 -55 40 -94
68 -172 126 -519 347 -684 436 -24 13 -65 36 -90 50 -294 167 -773 382 -1151
516 -292 104 -713 228 -885 261 -11 2 -38 9 -60 14 -22 6 -51 13 -65 16 -14 3
-50 10 -80 16 -30 6 -66 13 -80 16 -14 2 -36 7 -50 9 -64 13 -77 16 -105 20
-16 3 -41 7 -55 10 -23 4 -49 9 -117 19 -16 3 -64 10 -108 16 -213 29 -220 30
-445 50 -69 6 -145 13 -170 15 -248 22 -911 22 -1130 0 -19 -2 -75 -6 -125
-10 -49 -4 -103 -8 -120 -10 -16 -2 -59 -7 -95 -10 -36 -4 -72 -8 -80 -10 -8
-2 -44 -6 -80 -10 -36 -4 -74 -9 -85 -11 -11 -2 -35 -6 -54 -9 -54 -7 -105
-15 -131 -20 -13 -3 -40 -7 -60 -10 -20 -3 -47 -8 -60 -10 -14 -3 -41 -8 -60
-11 -19 -3 -127 -26 -239 -50 -643 -142 -1224 -346 -1791 -631 -439 -220 -724
-387 -1070 -628 -121 -83 -351 -254 -360 -265 -3 -4 -26 -23 -53 -43 -55 -42
-275 -225 -297 -247 -8 -8 -58 -53 -110 -100 -120 -106 -439 -425 -550 -549
-47 -52 -92 -102 -100 -111 -40 -43 -190 -223 -245 -294 -16 -21 -37 -46 -45
-56 -39 -47 -47 -57 -70 -90 -13 -19 -27 -37 -30 -40 -6 -5 -114 -153 -172
-235 -87 -124 -239 -355 -293 -446 -103 -175 -185 -317 -237 -414 -93 -171
-273 -543 -293 -604 -4 -12 -11 -19 -15 -15 -10 10 -170 284 -170 290 0 3 -11
21 -24 42 -20 31 -206 352 -274 472 -10 19 -127 222 -259 450 -132 228 -320
555 -418 725 -220 382 -443 769 -540 935 -39 69 -83 145 -97 170 -14 25 -65
112 -112 194 l-87 149 37 56 c89 134 404 552 490 651 12 14 60 71 107 128 73
88 154 182 232 268 410 453 836 861 1282 1226 130 107 405 321 459 358 51 35
310 220 321 230 68 58 676 437 893 557 30 16 73 40 95 53 437 248 1114 556
1660 755 116 42 497 170 535 180 8 2 107 31 220 64 165 48 476 131 550 146 60
12 179 38 255 55 50 11 104 23 120 26 17 2 89 15 160 29 72 13 146 26 165 29
65 10 105 17 160 26 30 5 75 12 100 15 41 5 83 11 150 20 14 2 70 9 125 15 55
6 111 13 125 15 14 2 59 6 100 10 41 3 86 8 100 10 14 2 75 7 135 11 61 4 126
8 145 10 19 1 114 5 210 9 96 4 176 8 177 9 6 5 872 -2 968 -8z m-60 -4389
c11 -2 61 -8 110 -11 95 -8 131 -11 208 -20 26 -3 68 -8 95 -11 26 -4 58 -8
72 -10 14 -2 70 -11 125 -20 159 -24 393 -72 565 -115 287 -72 740 -221 955
-315 17 -7 59 -25 95 -40 149 -62 459 -212 610 -294 471 -258 958 -597 1345
-936 266 -233 583 -556 783 -795 11 -14 47 -57 80 -96 143 -172 399 -528 519
-724 111 -179 240 -413 335 -602 54 -109 98 -200 98 -202 0 -3 12 -31 26 -63
14 -32 33 -74 41 -93 8 -19 19 -44 24 -55 63 -145 220 -598 244 -705 2 -8 22
-82 45 -165 65 -235 123 -486 154 -670 36 -213 38 -227 60 -430 23 -210 25
-230 33 -386 15 -304 6 -757 -21 -1004 -4 -33 -9 -82 -12 -110 -8 -84 -45
-359 -49 -375 -2 -8 -7 -35 -10 -60 -3 -25 -8 -52 -10 -60 -2 -8 -7 -30 -10
-49 -5 -29 -49 -245 -60 -292 -87 -386 -224 -816 -383 -1199 -40 -96 -58 -137
-107 -245 -34 -75 -214 -437 -225 -450 -4 -5 -21 -35 -37 -65 -193 -351 -427
-698 -704 -1041 -43 -53 -84 -103 -91 -110 -7 -8 -28 -32 -47 -54 -308 -361
-731 -751 -1132 -1042 -125 -90 -487 -333 -497 -333 -3 0 -19 -10 -36 -23 -27
-20 -187 -116 -316 -189 -52 -30 -306 -157 -430 -216 -230 -109 -570 -238
-853 -324 -297 -90 -619 -165 -912 -213 -55 -9 -111 -18 -125 -21 -65 -10
-230 -31 -320 -39 -36 -4 -81 -8 -100 -10 -19 -2 -84 -7 -145 -10 -60 -4 -130
-9 -155 -11 -71 -6 -616 -5 -710 0 -213 14 -387 28 -490 41 -19 2 -57 7 -85
10 -86 10 -378 56 -425 67 -25 5 -58 12 -75 15 -16 2 -82 16 -145 30 -63 14
-121 26 -130 28 -280 56 -921 271 -1233 414 -37 17 -70 31 -73 31 -10 0 -423
209 -507 256 -158 91 -333 198 -462 284 -122 81 -406 291 -484 356 -19 16 -66
55 -105 88 -39 32 -91 77 -116 100 -25 23 -61 54 -80 70 -236 191 -685 659
-865 901 -16 22 -32 42 -36 45 -3 3 -29 37 -57 75 -29 39 -61 81 -72 95 -26
32 -243 355 -296 440 -126 201 -327 576 -413 770 -19 41 -46 102 -61 135 -129
281 -355 954 -405 1203 -2 10 -12 53 -23 97 -11 44 -23 94 -26 110 -3 17 -17
91 -31 165 -36 185 -74 436 -89 595 -4 33 -9 85 -12 115 -7 64 -8 78 -19 270
-15 252 -10 719 10 955 7 82 16 171 20 205 2 19 7 60 10 90 4 30 8 67 11 81 2
15 6 47 9 70 3 24 15 98 26 164 12 66 23 129 25 140 1 11 5 31 8 45 3 14 9 41
12 60 3 19 10 49 15 65 4 17 11 46 14 65 3 19 8 43 11 52 4 15 9 33 19 83 3
11 19 70 36 130 17 61 32 117 34 125 2 8 4 16 5 18 2 1 3 5 4 10 40 150 189
567 266 737 12 28 33 74 46 103 13 29 24 54 24 56 0 4 54 121 124 269 213 447
556 974 910 1397 169 202 193 227 436 470 368 369 689 633 1115 916 342 228
748 451 1100 604 66 28 134 58 152 66 155 69 536 202 783 273 178 51 526 131
675 155 17 3 71 12 120 20 50 8 106 17 125 20 19 2 55 7 80 11 48 6 83 10 195
20 39 4 81 8 93 10 13 2 81 7 150 11 70 3 129 8 131 10 6 5 874 -3 896 -9z
m-10452 -1767 c90 -157 175 -304 188 -327 19 -32 564 -973 599 -1033 5 -8 27
-46 50 -84 22 -37 40 -69 40 -71 0 -3 103 -182 129 -225 8 -12 112 -193 191
-329 66 -114 463 -799 471 -811 13 -23 177 -309 206 -360 14 -25 50 -87 80
-138 l55 -93 -32 -132 c-18 -72 -34 -143 -37 -157 -2 -14 -17 -90 -33 -170
-16 -80 -32 -167 -35 -195 -3 -27 -8 -57 -10 -65 -3 -8 -7 -37 -10 -65 -3 -27
-8 -57 -10 -65 -2 -8 -7 -40 -10 -70 -6 -62 -12 -117 -19 -175 -3 -22 -8 -78
-11 -125 -4 -47 -8 -96 -10 -110 -23 -186 -23 -856 0 -1115 1 -16 6 -77 10
-135 4 -58 8 -107 10 -110 2 -3 6 -43 10 -90 4 -47 8 -87 10 -90 2 -3 6 -34
10 -70 4 -36 9 -74 11 -85 2 -10 6 -37 9 -60 7 -44 34 -208 40 -240 2 -11 6
-29 8 -40 4 -19 14 -73 23 -125 22 -123 108 -471 165 -670 33 -115 173 -537
194 -585 7 -16 38 -95 70 -175 139 -356 331 -752 541 -1117 208 -361 520 -805
804 -1143 294 -350 736 -785 1046 -1030 11 -8 51 -40 89 -70 257 -202 620
-453 910 -627 96 -57 125 -74 260 -150 128 -71 548 -275 705 -341 508 -213
997 -367 1520 -478 104 -22 111 -24 145 -29 17 -3 53 -10 80 -15 84 -16 108
-20 150 -26 22 -3 63 -9 90 -14 28 -5 75 -12 105 -16 30 -4 64 -8 75 -10 11
-1 45 -5 75 -8 30 -4 71 -8 90 -11 19 -3 64 -7 100 -10 36 -3 85 -7 110 -10
25 -2 86 -7 135 -10 50 -3 122 -8 160 -11 98 -6 661 -6 770 0 132 8 244 16
295 21 25 2 74 7 110 10 86 7 158 15 194 22 l29 5 -23 -38 c-13 -22 -38 -61
-56 -89 -17 -27 -132 -210 -254 -405 -123 -195 -239 -380 -258 -410 -56 -88
-73 -115 -198 -314 -66 -104 -128 -204 -139 -222 -11 -19 -161 -258 -333 -531
-173 -274 -319 -507 -325 -517 -7 -11 -63 -101 -126 -200 -62 -100 -147 -235
-188 -301 -41 -66 -103 -165 -139 -220 -35 -55 -67 -107 -71 -115 -13 -27 -50
-79 -54 -76 -2 3 -39 7 -81 10 -42 4 -92 9 -110 11 -18 2 -62 7 -98 10 -36 3
-76 8 -90 10 -27 4 -91 13 -155 21 -22 3 -80 11 -130 19 -49 8 -110 17 -135
21 -71 10 -93 14 -125 21 -16 3 -39 7 -51 8 -12 2 -45 8 -75 14 -30 6 -110 23
-179 37 -69 14 -136 28 -150 30 -52 10 -241 56 -375 90 -118 31 -215 58 -482
135 -18 6 -36 10 -40 11 -9 1 -522 177 -593 203 -67 24 -420 164 -455 180 -16
7 -113 50 -215 95 -642 284 -1297 653 -1905 1072 -140 97 -530 383 -561 412
-18 17 -46 39 -89 71 -22 17 -44 35 -50 41 -5 6 -19 17 -31 25 -11 8 -45 35
-75 60 -30 26 -106 90 -169 144 -63 53 -119 102 -125 109 -5 6 -28 26 -50 45
-213 181 -661 628 -920 917 -92 103 -100 111 -195 224 -30 36 -57 67 -60 70
-10 10 -186 225 -236 290 -427 551 -721 1001 -1069 1635 -165 300 -390 791
-555 1207 -33 84 -67 168 -75 186 -8 18 -15 37 -15 42 0 6 -9 29 -20 53 -32
71 -195 569 -259 792 -106 375 -194 749 -257 1100 -15 85 -54 328 -59 364 -3
23 -7 55 -9 70 -3 14 -8 51 -11 81 -4 30 -9 62 -10 70 -6 36 -17 121 -20 161
-1 24 -5 62 -8 84 -4 22 -9 72 -12 110 -3 39 -8 85 -10 102 -2 16 -6 75 -10
129 -3 54 -8 117 -9 139 -27 320 -28 1182 -1 1505 2 25 6 83 10 130 3 47 8
107 10 135 6 79 16 177 20 210 4 29 11 90 20 170 8 72 15 130 20 155 2 14 7
48 10 75 5 43 13 101 41 270 2 17 6 41 9 55 3 14 7 41 10 60 12 79 38 213 66
350 17 80 32 154 34 165 11 54 30 133 62 260 19 77 36 147 38 156 30 149 228
790 319 1034 8 22 26 72 41 110 14 39 33 90 42 115 26 75 186 455 262 624 75
164 236 491 312 631 24 44 64 117 88 163 25 45 46 81 47 79 1 -1 76 -130 167
-287z m20498 -645 c301 -665 557 -1431 714 -2135 11 -49 57 -269 61 -290 2
-14 7 -36 9 -50 13 -63 16 -82 35 -190 12 -63 23 -131 26 -150 3 -19 10 -61
15 -93 6 -33 12 -73 13 -90 2 -18 6 -48 10 -67 3 -19 8 -57 11 -85 8 -61 14
-108 20 -157 8 -62 14 -109 20 -173 3 -33 7 -80 10 -105 8 -83 16 -184 21
-255 3 -38 7 -101 9 -140 24 -377 25 -1143 0 -1415 -2 -25 -6 -92 -10 -150 -3
-58 -8 -121 -10 -140 -2 -19 -6 -69 -9 -110 -4 -41 -8 -84 -10 -95 -2 -11 -7
-56 -11 -99 -4 -43 -8 -87 -10 -97 -2 -10 -6 -42 -9 -71 -4 -29 -8 -64 -11
-78 -2 -14 -9 -63 -15 -110 -6 -47 -22 -152 -36 -235 -14 -82 -27 -163 -30
-180 -3 -16 -7 -37 -9 -45 -2 -8 -6 -31 -9 -50 -3 -19 -10 -60 -16 -90 -7 -30
-14 -68 -16 -85 -3 -16 -12 -55 -19 -85 -7 -30 -16 -68 -19 -85 -3 -16 -7 -39
-10 -50 -3 -11 -14 -60 -25 -110 -88 -391 -239 -899 -409 -1370 -46 -129 -174
-449 -202 -508 -11 -22 -20 -44 -20 -48 0 -4 -18 -47 -40 -96 -23 -48 -45 -97
-50 -108 -64 -144 -259 -540 -321 -651 -16 -30 -43 -80 -61 -111 -306 -557
-732 -1194 -1137 -1703 -103 -129 -317 -383 -392 -465 -189 -207 -301 -325
-464 -488 -103 -103 -351 -338 -423 -402 -13 -11 -35 -31 -50 -45 -154 -145
-603 -506 -897 -721 -214 -157 -676 -464 -805 -535 -19 -10 -37 -21 -40 -25
-8 -9 -352 -205 -447 -255 -48 -26 -92 -50 -98 -54 -13 -11 -447 -227 -560
-280 -880 -413 -1944 -753 -2835 -906 -14 -3 -61 -11 -105 -19 -44 -8 -98 -17
-120 -20 -22 -3 -51 -8 -65 -10 -43 -8 -85 -15 -121 -19 -166 -22 -273 -36
-319 -41 -30 -3 -71 -8 -90 -10 -19 -2 -66 -7 -105 -10 -38 -4 -86 -8 -105
-10 -299 -29 -994 -53 -1006 -34 -2 4 39 76 93 158 154 237 197 305 408 646
108 176 207 336 220 355 12 19 62 100 110 180 48 80 98 161 110 180 13 19 95
152 183 295 361 589 579 932 859 1350 291 435 426 625 445 625 53 0 654 217
846 306 29 13 55 24 57 24 2 0 57 25 122 56 722 343 1335 749 1923 1273 231
206 509 484 685 685 33 38 65 74 70 80 114 123 400 491 549 706 47 69 89 130
94 135 79 103 396 642 496 845 15 30 31 62 36 70 30 48 180 379 255 560 112
272 222 587 304 875 49 172 119 457 136 555 3 17 12 61 19 98 8 37 17 87 21
112 3 25 8 52 10 60 6 20 42 260 50 330 3 30 8 66 10 80 3 14 7 52 9 85 10
112 17 200 21 230 21 184 21 1024 0 1190 -2 17 -7 73 -10 125 -3 52 -8 106
-10 120 -2 14 -6 52 -10 85 -22 223 -66 497 -120 760 -111 534 -292 1103 -514
1619 -199 463 -463 948 -743 1369 -54 81 -98 148 -98 150 0 1 884 2 1965 2
l1965 0 31 -70z"/>
<path d="M12298 17705 c-2 -2 -61 -6 -133 -9 -71 -4 -150 -9 -175 -11 -784
-80 -1452 -288 -1979 -616 -353 -221 -629 -503 -778 -794 -97 -190 -138 -359
-138 -570 0 -180 19 -289 79 -447 223 -594 930 -1109 1884 -1374 70 -20 138
-38 152 -40 13 -3 60 -14 105 -24 68 -16 134 -28 290 -55 17 -3 41 -7 55 -10
14 -2 52 -7 85 -10 33 -4 67 -8 75 -10 8 -2 47 -7 85 -11 39 -3 83 -8 100 -10
197 -23 886 -23 1025 0 14 3 57 7 95 11 108 10 272 33 415 59 311 55 748 184
980 289 437 196 704 369 946 612 100 100 230 260 264 325 7 14 16 27 19 30 11
9 69 124 89 175 10 28 22 59 27 70 10 25 10 24 34 115 29 107 36 168 35 315
-2 259 -79 492 -243 735 -259 383 -753 729 -1356 950 -33 12 -69 26 -80 30
-52 21 -318 98 -425 124 -133 31 -204 46 -345 71 -144 25 -334 50 -460 60 -38
3 -101 8 -140 11 -67 6 -582 13 -587 9z"/>
<path d="M9104 13398 c2 -838 3 -854 24 -933 42 -156 88 -266 163 -391 53 -88
138 -204 150 -204 5 0 9 -6 9 -13 0 -14 192 -208 255 -257 22 -18 42 -35 45
-39 3 -4 30 -24 60 -46 30 -22 57 -42 60 -45 3 -3 32 -23 65 -44 33 -21 73
-48 88 -58 80 -55 440 -239 487 -250 8 -2 17 -6 20 -9 10 -12 382 -145 425
-152 11 -1 25 -5 30 -9 11 -6 269 -73 337 -87 85 -18 204 -40 238 -46 19 -3
47 -8 63 -10 15 -3 39 -7 55 -9 15 -3 45 -7 68 -11 23 -3 70 -8 105 -10 35 -2
64 -5 64 -5 0 -6 104 -16 275 -27 195 -12 688 -5 815 12 16 2 77 9 135 15 58
6 116 12 130 14 32 5 119 18 145 21 43 6 203 36 260 50 33 8 74 17 90 19 17 3
95 24 175 46 80 22 153 42 163 45 10 2 53 16 95 31 159 55 242 88 242 96 0 5
4 7 9 4 5 -3 29 3 55 14 25 12 48 21 51 21 6 0 310 154 352 177 17 10 44 27
60 38 15 10 42 26 58 35 37 20 173 117 235 167 25 21 54 44 65 52 34 26 239
233 276 280 144 180 253 395 300 595 9 36 12 279 13 888 1 460 0 837 -1 837
-1 0 -16 -44 -33 -99 -37 -122 -109 -269 -185 -381 -32 -47 -60 -87 -64 -90
-3 -3 -18 -21 -32 -40 -58 -77 -212 -224 -359 -344 -47 -38 -237 -164 -310
-206 -41 -23 -86 -50 -100 -58 -14 -9 -27 -17 -30 -17 -3 -1 -45 -20 -95 -44
-167 -79 -190 -89 -287 -127 -53 -21 -95 -40 -93 -43 1 -3 -10 -6 -27 -7 -16
-1 -39 -6 -51 -12 -20 -10 -233 -78 -275 -87 -9 -2 -41 -11 -70 -19 -29 -8
-55 -15 -57 -15 -3 -1 -6 -1 -7 -2 -4 -1 -27 -6 -108 -24 -41 -9 -84 -19 -95
-21 -11 -3 -31 -6 -45 -9 -29 -4 -195 -33 -227 -39 -12 -3 -46 -7 -75 -10 -29
-4 -69 -8 -88 -11 -19 -2 -64 -7 -100 -10 -36 -3 -81 -8 -100 -10 -194 -24
-765 -24 -970 0 -19 2 -66 7 -105 10 -38 3 -101 10 -140 16 -38 5 -88 12 -110
14 -22 3 -62 10 -90 15 -62 12 -100 19 -145 26 -124 20 -492 114 -532 136 -13
6 -18 5 -18 -4 0 -10 -2 -10 -8 -1 -5 7 -37 22 -73 34 -111 36 -339 129 -456
185 -61 30 -116 54 -121 54 -6 0 -12 4 -14 8 -1 4 -34 25 -73 47 -38 21 -101
58 -140 83 -38 25 -76 45 -83 45 -6 0 -10 2 -8 5 3 2 -41 38 -97 79 -188 141
-368 321 -462 463 -17 25 -32 47 -35 50 -6 5 -36 55 -75 125 -37 65 -90 204
-115 295 -12 47 -23 86 -25 88 -1 2 -2 -381 -1 -850z"/>
<path d="M9104 10485 c1 -621 5 -870 13 -895 6 -19 17 -60 24 -90 6 -30 15
-59 19 -65 4 -5 10 -23 14 -39 6 -25 71 -164 112 -237 68 -126 248 -335 392
-456 31 -27 64 -55 73 -63 26 -22 39 -32 94 -70 28 -19 52 -38 55 -41 5 -5 70
-49 112 -74 9 -5 48 -29 85 -51 142 -87 479 -246 525 -248 14 0 24 -4 22 -7
-7 -12 324 -123 456 -155 8 -2 60 -14 115 -28 55 -13 114 -27 130 -30 17 -3
77 -15 135 -26 150 -29 151 -29 200 -35 25 -3 59 -8 75 -10 17 -3 53 -8 80
-11 28 -3 66 -7 85 -10 19 -2 67 -6 105 -9 39 -3 106 -8 150 -11 110 -9 515
-9 655 -1 200 12 267 18 450 42 14 2 72 11 130 21 58 9 114 18 125 19 11 1 20
3 20 4 0 2 11 4 25 7 14 2 59 12 100 20 41 9 89 18 105 21 17 3 37 8 45 13 8
4 33 11 55 15 22 5 45 9 51 10 6 2 51 15 99 30 49 15 96 28 105 30 66 14 371
136 529 211 115 55 352 185 371 204 3 3 25 18 50 34 113 73 245 181 361 296
119 118 239 263 239 288 0 7 4 12 8 12 11 0 103 167 138 250 27 67 60 172 70
225 8 39 11 1695 4 1695 -3 0 -14 -33 -24 -72 -11 -40 -22 -80 -27 -88 -4 -8
-14 -31 -22 -50 -80 -189 -200 -361 -372 -534 -87 -87 -241 -217 -310 -262
-16 -10 -36 -24 -43 -31 -7 -7 -17 -13 -21 -13 -4 0 -17 -9 -29 -20 -12 -11
-25 -21 -29 -22 -5 0 -24 -11 -43 -23 -70 -44 -217 -124 -307 -166 -51 -23
-89 -47 -86 -52 3 -6 1 -7 -5 -3 -6 4 -28 -1 -49 -10 -21 -9 -42 -18 -48 -20
-5 -2 -71 -26 -145 -55 -121 -46 -387 -132 -444 -143 -11 -3 -59 -13 -106 -25
-47 -11 -97 -22 -110 -25 -14 -2 -45 -9 -70 -15 -39 -8 -137 -26 -205 -36 -11
-2 -33 -6 -50 -9 -16 -3 -52 -8 -80 -11 -27 -3 -66 -7 -85 -10 -19 -3 -60 -7
-90 -10 -30 -3 -73 -8 -95 -10 -227 -24 -776 -24 -1000 0 -22 2 -67 7 -100 9
-33 3 -108 12 -165 21 -58 8 -121 17 -140 20 -35 5 -177 31 -215 39 -11 3 -56
12 -100 22 -104 22 -98 20 -115 27 -8 3 -61 17 -118 32 -56 14 -120 32 -142
40 -22 8 -40 12 -40 8 0 -3 -6 -1 -12 4 -7 6 -38 18 -68 28 -66 21 -236 85
-305 115 -95 41 -300 143 -317 157 -9 8 -22 12 -27 8 -6 -3 -11 -2 -11 2 0 5
-30 27 -67 48 -75 44 -211 134 -258 172 -16 13 -35 27 -40 31 -106 76 -321
290 -385 382 -13 19 -27 37 -31 40 -14 11 -108 169 -139 235 -43 93 -57 131
-90 250 l-27 100 1 -860z"/>
</g>
</svg>
