<?xml version="1.0" encoding="UTF-8" standalone="no"?>
<svg
   xmlns:dc="http://purl.org/dc/elements/1.1/"
   xmlns:cc="http://creativecommons.org/ns#"
   xmlns:rdf="http://www.w3.org/1999/02/22-rdf-syntax-ns#"
   xmlns:svg="http://www.w3.org/2000/svg"
   xmlns="http://www.w3.org/2000/svg"
   id="svg5072"
   version="1.1"
   viewBox="0 0 40.324272 37.666149"
   height="37.666149mm"
   width="40.324272mm">
  <defs
     id="defs5066" />
  <metadata
     id="metadata5069">
    <rdf:RDF>
      <cc:Work
         rdf:about="">
        <dc:format>image/svg+xml</dc:format>
        <dc:type
           rdf:resource="http://purl.org/dc/dcmitype/StillImage" />
        <dc:title></dc:title>
      </cc:Work>
    </rdf:RDF>
  </metadata>
  <g
     transform="translate(-47.952676,-145.10884)"
     id="layer1">
    <path
       id="path5628"
       d="m 64.452744,182.56166 c -2.344738,-0.36158 -5.62005,-1.61556 -7.829291,-2.99751 -3.463953,-2.16682 -6.129138,-5.37199 -7.72029,-9.2845 -0.706146,-1.73635 -0.730106,-2.13906 -0.950487,-5.68854 0.157265,-3.71081 0.201048,-3.89544 1.176569,-6.72305 2.529209,-7.33107 8.099689,-11.99837 15.171718,-12.71182 3.1609,-0.31888 7.129394,1.00506 8.834797,2.94741 0.74194,0.84502 0.753772,0.90249 0.395092,1.9191 -0.203364,0.57639 -0.492223,1.26234 -0.641908,1.52432 -0.729782,1.27727 -0.703784,1.27718 -2.189179,0.008 -6.569651,-5.61263 -14.47315,-3.14836 -17.624617,5.49525 -0.980108,2.68818 -1.370178,4.90875 -1.374254,7.82334 -0.0063,4.52936 1.234362,7.65195 4.198587,10.56701 4.523111,4.44808 10.878945,5.26163 18.015533,2.30599 6.450483,-2.67148 10.149334,-6.20857 11.781956,-11.26669 0.682149,-2.11341 0.467379,-5.56228 -0.46506,-7.46812 -1.326976,-2.71224 -5.075209,-5.73578 -8.4474,-6.81417 l -1.275027,-0.40773 v -2.34858 c 0,-2.3115 0.0094,-2.34579 0.595312,-2.17199 0.327422,0.0971 1.012032,0.44633 1.521355,0.77602 0.509322,0.32968 1.640416,1.0239 2.513541,1.5427 2.671802,1.58757 4.521033,3.65078 5.976864,6.66847 1.636289,3.39177 2.17334,5.62827 2.160158,8.99584 -0.02691,6.8733 -3.704989,12.10088 -10.830385,15.39302 -3.852328,1.77988 -8.97663,2.53553 -12.993584,1.91607 z"
       style="fill:#f90b16;fill-opacity:1;stroke-width:0.26458332" />
    <text
       id="text5645"
       y="153.34262"
       x="29.399649"
       style="font-style:normal;font-variant:normal;font-weight:normal;font-stretch:normal;font-size:10.58333302px;line-height:125%;font-family:Roboto;-inkscape-font-specification:Roboto;letter-spacing:0px;word-spacing:0px;fill:#000000;fill-opacity:1;stroke:none;stroke-width:0.26458332px;stroke-linecap:butt;stroke-linejoin:miter;stroke-opacity:1"
       xml:space="preserve"><tspan
         style="stroke-width:0.26458332px"
         y="162.60304"
         x="29.399649"
         id="tspan5643" /></text>
    <g
       id="text5649"
       style="font-style:normal;font-variant:normal;font-weight:normal;font-stretch:normal;font-size:10.58333302px;line-height:125%;font-family:Typeecanoe;-inkscape-font-specification:Typeecanoe;letter-spacing:0px;word-spacing:0px;fill:#000000;fill-opacity:1;stroke:none;stroke-width:0.26458332px;stroke-linecap:butt;stroke-linejoin:miter;stroke-opacity:1"
       aria-label="1">
      <path
         id="path5651"
         style="font-style:normal;font-variant:normal;font-weight:normal;font-stretch:normal;font-size:19.75555611px;font-family:Typeecanoe;-inkscape-font-specification:Typeecanoe;stroke-width:0.26458332px"
         d="m 63.768589,171.64658 q -0.296333,-0.079 -0.612422,-0.33585 -0.296333,-0.27658 -0.572911,-0.61242 -0.256822,-0.3556 -0.434622,-0.73096 -0.158045,-0.39511 -0.158045,-0.69144 l 0.197556,-0.19756 q 0.07902,-0.079 0.217311,-0.1778 0.158044,-0.11853 0.1778,-0.11853 h 4.148667 l 0.197555,-0.69144 q 0,-0.0198 0.07902,-0.69145 0.09878,-0.69144 0.217312,-1.63971 0.138288,-0.94827 0.256822,-1.93604 0.138289,-1.00754 0.237066,-1.65947 0.118534,-0.96802 0.237067,-1.89653 0.118533,-0.94827 0.118533,-1.9558 h -3.516489 q 0,0 -0.07902,-0.0593 -0.07902,-0.0593 -0.1778,-0.13829 -0.07902,-0.079 -0.1778,-0.15804 -0.09878,-0.079 -0.158044,-0.13829 l -0.790222,-0.79023 q -0.05927,-0.0988 -0.138289,-0.25682 -0.07902,-0.15804 -0.138289,-0.31609 -0.05927,-0.15804 -0.09878,-0.27657 -0.03951,-0.11854 -0.01976,-0.13829 l 0.395112,-0.39511 q 0.01976,-0.0198 0.474133,-0.0395 0.454378,-0.0395 1.086555,-0.0593 0.632178,-0.0395 1.284112,-0.0593 0.671689,-0.0395 1.106311,-0.0395 h 0.296333 q 0.256822,0 0.592667,0 0.335844,-0.0198 0.671689,-0.0198 h 0.5334 1.363133 q 0.553156,0.33585 0.513645,1.73849 0,1.4224 -0.01976,1.44216 -0.691444,2.27189 -1.165578,4.74133 -0.454378,2.44969 -0.454378,4.84011 0,0.15805 0,0.43463 0.01976,0.25682 0.03951,0.25682 l 3.556001,0.59266 q 0.434622,0.079 0.671688,0.3556 0.237067,0.25683 0.3556,0.61243 0.118534,0.3556 0.138289,0.77046 0.01976,0.39511 0.01976,0.75071 0,0.21732 -0.1778,0.3556 -0.1778,0.13829 -0.395111,0.13829 -0.03951,0 -0.118534,-0.0197 -0.07902,0 -0.09878,0 -2.390423,-0.47414 -4.8006,-0.69145 -2.390423,-0.21731 -4.879623,-0.0988 z" />
    </g>
  </g>
</svg>
