<?xml version="1.0" encoding="UTF-8" standalone="no"?>
<svg
   xmlns:dc="http://purl.org/dc/elements/1.1/"
   xmlns:cc="http://creativecommons.org/ns#"
   xmlns:rdf="http://www.w3.org/1999/02/22-rdf-syntax-ns#"
   xmlns:svg="http://www.w3.org/2000/svg"
   xmlns="http://www.w3.org/2000/svg"
   id="svg8"
   version="1.1"
   viewBox="0 0 150 52"
   height="52mm"
   width="150mm">
  <g
     transform="translate(0,-245.00001)"
     id="layer1">
    <path
       id="path4502"
       d="m 18.194502,296.47294 c -0.143584,-0.01 -0.717925,-0.0458 -1.276312,-0.0802 -4.145307,-0.25552 -8.3826917,-1.00042 -12.0959657,-2.12638 -1.0747393,-0.3259 -2.7640027,-0.92161 -3.480853,-1.22752 l -0.40610004,-0.1733 -0.0142586,-0.39635 c -0.007876,-0.21798 -0.0916271,-7.73223 -0.18619286,-16.69833 -0.0945649,-8.9661 -0.17952234,-16.99382 -0.18879366,-17.83937 l -0.0168595,-1.5374 1.03598826,-0.0159 1.0359881,-0.0158 -0.034955,0.94409 c -0.019222,0.51926 -0.04838,1.58371 -0.064791,2.36544 -0.016411,0.78175 -0.043655,1.98264 -0.060551,2.66866 -0.016887,0.68602 -0.1470654,6.44248 -0.2892762,12.79214 -0.14221,6.34966 -0.2846223,12.57603 -0.3164721,13.83639 -0.031851,1.26036 -0.058069,2.33409 -0.058271,2.38606 -2.5e-4,0.0654 0.2631456,0.21557 0.8553467,0.4877 10.2520066,4.71086 24.7738846,4.66529 35.1592006,-0.11034 0.846365,-0.38919 2.306788,-1.15606 2.429517,-1.27575 0.06873,-0.067 0.101341,-0.58057 0.164453,-2.58994 0.01754,-0.55839 0.04366,-1.28937 0.05807,-1.62439 0.0144,-0.33504 0.04093,-1.13128 0.05896,-1.76944 0.01803,-0.63816 0.04342,-1.36914 0.05643,-1.6244 0.01301,-0.25527 0.212712,-6.06393 0.443784,-12.90816 l 0.42013,-12.44405 0.834538,-1.79845 c 0.458995,-0.98914 0.849542,-1.83427 0.867882,-1.87806 0.01834,-0.0438 -0.107735,0.0177 -0.280165,0.13656 -2.646213,1.82471 -11.013583,3.19379 -21.488701,3.51601 -4.56856,0.14053 -8.718713,-0.15478 -12.3280224,-0.87722 -4.0755515,-0.81578 -6.72403,-2.09845 -7.4827651,-3.62396 -0.1876444,-0.37727 -0.202056,-0.44529 -0.2030496,-0.95825 -0.00101,-0.50848 0.014066,-0.58292 0.190367,-0.94121 0.6392795,-1.29924 2.4738994,-2.36523 5.5122816,-3.20284 3.8052075,-1.04902 9.4045995,-1.55267 14.5432455,-1.30813 7.683348,0.36564 15.830981,1.83254 19.631569,3.53447 1.731007,0.77515 2.616886,1.59204 2.616886,2.41308 0,0.33021 -0.09506,0.55807 -0.386742,0.927 l -0.229335,0.29007 -0.447026,18.7676 c -0.245863,10.32218 -0.466208,19.04172 -0.489656,19.37676 l -0.04263,0.60914 -0.899221,0.38404 c -4.63439,1.97925 -10.522348,3.22668 -16.940153,3.58896 -0.902445,0.0509 -5.53407,0.0667 -6.207523,0.0211 z m 8.499084,-41.15365 c 8.597457,-0.39581 15.226194,-1.77767 15.228518,-3.17461 2.9e-4,-0.18975 -0.368003,-0.56725 -0.806999,-0.82712 -1.533375,-0.90766 -5.637852,-1.98608 -10.244494,-2.69164 -7.400711,-1.13353 -14.23363,-1.11392 -20.158633,0.0579 -2.8774221,0.56907 -5.3940486,1.408 -6.5569177,2.18579 -0.341807,0.22861 -0.7424783,0.61133 -0.8458593,0.80795 -0.1595942,0.30354 -0.1089389,0.50623 0.2012317,0.8052 0.4810911,0.4637 1.4630943,0.86248 3.1920348,1.29624 3.1228966,0.78346 7.3951435,1.31188 12.6233125,1.56131 0.954621,0.0455 6.250401,0.0305 7.367806,-0.021 z"
       style="fill:#000000;stroke-width:0.05801423" />
    <text
       id="text4506"
       y="253.03279"
       x="9.8840771"
       style="font-style:normal;font-variant:normal;font-weight:normal;font-stretch:normal;font-size:10.58333302px;line-height:125%;font-family:Roboto;-inkscape-font-specification:Roboto;letter-spacing:0px;word-spacing:0px;fill:#000000;fill-opacity:1;stroke:none;stroke-width:0.26458332px;stroke-linecap:butt;stroke-linejoin:miter;stroke-opacity:1"
       xml:space="preserve"><tspan
         style="font-size:4.23333311px;stroke-width:0.26458332px"
         y="253.03279"
         x="9.8840771"
         id="tspan4504">Your schema</tspan></text>
    <rect
       y="262.03751"
       x="4.5666909"
       height="8.9249516"
       width="33.924953"
       id="rect4508"
       style="fill:none;fill-opacity:1;stroke:#000000;stroke-width:1.07504845;stroke-linejoin:miter;stroke-miterlimit:4;stroke-dasharray:none;stroke-opacity:1" />
    <rect
       y="277.02386"
       x="4.5530434"
       height="8.9522467"
       width="33.952248"
       id="rect4510"
       style="fill:none;fill-opacity:1;stroke:#000000;stroke-width:1.04775298;stroke-linejoin:miter;stroke-miterlimit:4;stroke-dasharray:none;stroke-opacity:1" />
    <text
       id="text4506-2"
       y="267.86942"
       x="8.0467873"
       style="font-style:normal;font-variant:normal;font-weight:normal;font-stretch:normal;font-size:10.58333302px;line-height:125%;font-family:Roboto;-inkscape-font-specification:Roboto;letter-spacing:0px;word-spacing:0px;fill:#000000;fill-opacity:1;stroke:none;stroke-width:0.26458332px;stroke-linecap:butt;stroke-linejoin:miter;stroke-opacity:1"
       xml:space="preserve"><tspan
         style="font-size:4.23333311px;stroke-width:0.26458332px"
         y="267.86942"
         x="8.0467873"
         id="tspan4504-9">CREDIT_CARD</tspan></text>
    <text
       id="text4506-2-7"
       y="283.00479"
       x="10.391863"
       style="font-style:normal;font-variant:normal;font-weight:normal;font-stretch:normal;font-size:10.58333302px;line-height:125%;font-family:Roboto;-inkscape-font-specification:Roboto;letter-spacing:0px;word-spacing:0px;fill:#000000;fill-opacity:1;stroke:none;stroke-width:0.26458332px;stroke-linecap:butt;stroke-linejoin:miter;stroke-opacity:1"
       xml:space="preserve"><tspan
         style="font-size:4.23333311px;stroke-width:0.26458332px"
         y="283.00479"
         x="10.391863"
         id="tspan4504-9-8">CUSTOMER</tspan></text>
    <path
       id="path4548"
       d="m 46.618084,270.141 v 2.64583 l 54.088096,-0.7087 -9.307651,7.93751 0.0473,1.98437 13.134661,-11.24479 -12.095231,-12.18974 -0.0473,1.98438 8.268221,9.73288 z"
       style="fill:#f90b16;fill-opacity:1;fill-rule:evenodd;stroke:none;stroke-width:0.26458332px;stroke-linecap:butt;stroke-linejoin:miter;stroke-opacity:1" />
    <text
       id="text4565"
       y="267.87598"
       x="56.016068"
       style="font-style:normal;font-variant:normal;font-weight:normal;font-stretch:normal;font-size:10.58333302px;line-height:125%;font-family:Roboto;-inkscape-font-specification:Roboto;letter-spacing:0px;word-spacing:0px;fill:#000000;fill-opacity:1;stroke:none;stroke-width:0.26458332px;stroke-linecap:butt;stroke-linejoin:miter;stroke-opacity:1"
       xml:space="preserve"><tspan
         style="font-size:7.05555534px;stroke-width:0.26458332px"
         y="267.87598"
         x="56.016068"
         id="tspan4563">Generator</tspan></text>
    <g
       transform="matrix(0.99198851,0,0,0.99198851,-0.06976741,2.1541585)"
       id="g4577">
      <path
         style="fill:#000000;stroke-width:0.26458332"
         d="m 144.17082,296.52541 c -1.30969,-0.12688 -10.05548,-0.83062 -19.4351,-1.56389 -9.37961,-0.73326 -17.07371,-1.35835 -17.09798,-1.38908 -0.17006,-0.21531 4.53163,-47.71752 4.7365,-47.85383 0.60744,-0.40417 8.28099,-0.54543 13.5887,-0.25015 5.12101,0.2849 10.9847,0.84136 13.31309,1.2634 1.68858,0.30607 4.98823,4.26129 9.63187,11.54554 l 1.72237,2.70179 -0.92042,9.91869 c -0.50623,5.45528 -1.24523,13.48897 -1.64222,17.85264 -0.59188,6.50587 -0.79325,7.9404 -1.11868,7.96976 -0.21828,0.0197 -1.46844,-0.068 -2.77813,-0.19487 z m 0.66175,-2.69373 c 1.6e-4,-0.31883 0.89188,-6.83048 1.98159,-14.47032 1.08971,-7.63984 1.98255,-14.19959 1.98408,-14.57722 l 0.003,-0.68659 -4.29948,-0.31022 c -9.20623,-0.66427 -8.4451,-0.54236 -8.29387,-1.32848 0.50875,-2.64467 1.75354,-13.35637 1.5725,-13.53172 -0.81125,-0.78574 -19.00626,-1.67427 -22.16129,-1.08221 -0.86044,0.16146 -1.60041,0.32955 -1.64439,0.37352 -0.20767,0.20767 -4.56476,42.65536 -4.39439,42.8111 0.16724,0.15288 7.18003,0.87917 30.22509,3.13031 2.54661,0.24876 4.7195,0.40712 4.82864,0.35191 0.10914,-0.0552 0.19857,-0.36124 0.19873,-0.68008 z m 3.17471,-32.18804 c 0,-0.24656 -2.2941,-4.3251 -3.65143,-6.49166 -1.65403,-2.64014 -4.23284,-5.60072 -4.55902,-5.23393 -0.10117,0.11377 -0.44929,2.46064 -0.77359,5.21527 -0.3243,2.75462 -0.65379,5.40377 -0.73221,5.88698 l -0.14257,0.87856 h 4.92941 c 2.98934,0 4.92941,-0.10045 4.92941,-0.25522 z"
         id="path4561" />
      <text
         xml:space="preserve"
         style="font-style:normal;font-variant:normal;font-weight:normal;font-stretch:normal;font-size:10.58333302px;line-height:125%;font-family:Roboto;-inkscape-font-specification:Roboto;letter-spacing:0px;word-spacing:0px;fill:#000000;fill-opacity:1;stroke:none;stroke-width:0.26458332px;stroke-linecap:butt;stroke-linejoin:miter;stroke-opacity:1"
         x="127.22221"
         y="271.10861"
         id="text4569"><tspan
           id="tspan4567"
           x="127.22221"
           y="271.10861"
           style="text-align:center;text-anchor:middle;stroke-width:0.26458332px">Java</tspan><tspan
           x="127.22221"
           y="284.33777"
           style="text-align:center;text-anchor:middle;stroke-width:0.26458332px"
           id="tspan4571">API</tspan></text>
    </g>
  </g>
</svg>
