<?xml version="1.0" encoding="UTF-8" standalone="no"?>
<svg
   xmlns:dc="http://purl.org/dc/elements/1.1/"
   xmlns:cc="http://creativecommons.org/ns#"
   xmlns:rdf="http://www.w3.org/1999/02/22-rdf-syntax-ns#"
   xmlns:svg="http://www.w3.org/2000/svg"
   xmlns="http://www.w3.org/2000/svg"
   id="svg4601"
   version="1.1"
   viewBox="0 0 76.120621 76.094162"
   height="76.094162mm"
   width="76.120621mm">
  <defs
     id="defs4595" />
  <metadata
     id="metadata4598">
    <rdf:RDF>
      <cc:Work
         rdf:about="">
        <dc:format>image/svg+xml</dc:format>
        <dc:type
           rdf:resource="http://purl.org/dc/dcmitype/StillImage" />
        <dc:title></dc:title>
      </cc:Work>
    </rdf:RDF>
  </metadata>
  <g
     transform="translate(-4.2730197,-29.899346)"
     id="layer1">
    <g
       id="g4579"
       transform="matrix(0.26458333,0,0,0.26458333,-43.378438,18.866221)">
      <path
         d="M 451.9,120.5 V 120 h -0.1 C 427.9,73 379.6,41.7 324,41.7 c -79.3,0 -143.9,64.5 -143.9,143.8 0,79.3 64.5,143.8 143.9,143.8 79.3,0 143.8,-64.6 143.8,-143.9 -0.1,-23.3 -5.9,-45.4 -15.9,-64.9 z m -128,-63.7 c 47,0 88.1,25.2 110.6,63.2 H 391 C 373.9,102 350.2,91.6 323.9,91.6 286.4,91.6 254,113.7 239,145.5 L 219.1,111 C 242.5,78.2 280.7,56.8 323.9,56.8 Z m 0,207.6 c -43.5,0 -79,-35.4 -79,-79 0,-43.6 35.4,-79 79,-79 43.6,0 79,35.4 79,79 0,43.6 -35.4,79 -79,79 z M 195.1,185.5 c 0,-21.7 5.4,-42.1 14.9,-60.1 l 22.4,38.7 c -1.6,6.9 -2.5,14 -2.5,21.3 0,51.9 42.2,94 94,94 2.7,0 5.3,-0.2 7.9,-0.4 l -21.6,34.4 C 245.6,306.7 195.1,251.9 195.1,185.5 Z m 132.2,128.6 24.3,-38.8 C 390,263.5 418,227.3 418,185.1 418,166 412.2,148 402.4,133 h 39.5 c 7,16 11,33.7 11,52.1 -0.1,69.9 -56.2,127.2 -125.6,129 z"
         id="path74"
         style="fill:#f90b16" />
      <g
         id="g82"
         transform="translate(4)">
        <path
           d="M 277.9,205.6 V 230 c 48,30.1 83,0 83,0 v -24.4 c -41,38.2 -83,0 -83,0 z"
           id="path76"
           style="fill:#f90b16" />
        <path
           d="m 277.9,168 v 24.4 c 48,30.1 83,0 83,0 V 168 c -41,38.2 -83,0 -83,0 z"
           id="path78"
           style="fill:#f90b16" />
        <ellipse
           cx="319.79999"
           cy="147.2"
           rx="41.799999"
           ry="24.5"
           id="ellipse80"
           style="fill:#f90b16" />
      </g>
    </g>
  </g>
</svg>
