<?xml version="1.0" encoding="UTF-8" standalone="no"?>
<!-- Generator: Adobe Illustrator 18.0.0, SVG Export Plug-In . SVG Version: 6.00 Build 0)  -->

<svg
   xmlns:dc="http://purl.org/dc/elements/1.1/"
   xmlns:cc="http://creativecommons.org/ns#"
   xmlns:rdf="http://www.w3.org/1999/02/22-rdf-syntax-ns#"
   xmlns:svg="http://www.w3.org/2000/svg"
   xmlns="http://www.w3.org/2000/svg"
   xmlns:sodipodi="http://sodipodi.sourceforge.net/DTD/sodipodi-0.dtd"
   xmlns:inkscape="http://www.inkscape.org/namespaces/inkscape"
   version="1.1"
   id="Layer_1"
   x="0px"
   y="0px"
   viewBox="0 0 287.70001 287.60002"
   enable-background="new 0 0 639 524.6"
   xml:space="preserve"
   sodipodi:docname="SVG2.svg"
   width="287.70001"
   height="287.60001"
   inkscape:version="0.92.1 r15371"><metadata
     id="metadata101"><rdf:RDF><cc:Work
         rdf:about=""><dc:format>image/svg+xml</dc:format><dc:type
           rdf:resource="http://purl.org/dc/dcmitype/StillImage" /><dc:title></dc:title></cc:Work></rdf:RDF></metadata><defs
     id="defs99" /><sodipodi:namedview
     pagecolor="#ffffff"
     bordercolor="#666666"
     borderopacity="1"
     objecttolerance="10"
     gridtolerance="10"
     guidetolerance="10"
     inkscape:pageopacity="0"
     inkscape:pageshadow="2"
     inkscape:window-width="1920"
     inkscape:window-height="1018"
     id="namedview97"
     showgrid="false"
     fit-margin-top="0"
     fit-margin-left="0"
     fit-margin-right="0"
     fit-margin-bottom="0"
     inkscape:zoom="1.6221884"
     inkscape:cx="130.15323"
     inkscape:cy="67.000012"
     inkscape:window-x="1912"
     inkscape:window-y="-8"
     inkscape:window-maximized="1"
     inkscape:current-layer="g92" /><g
     id="g94"
     transform="translate(-180.1,-41.7)"><g
       id="g92"><path
         d="M 451.9,120.5 V 120 h -0.1 C 427.9,73 379.6,41.7 324,41.7 c -79.3,0 -143.9,64.5 -143.9,143.8 0,79.3 64.5,143.8 143.9,143.8 79.3,0 143.8,-64.6 143.8,-143.9 -0.1,-23.3 -5.9,-45.4 -15.9,-64.9 z m -128,-63.7 c 47,0 88.1,25.2 110.6,63.2 H 391 C 373.9,102 350.2,91.6 323.9,91.6 286.4,91.6 254,113.7 239,145.5 L 219.1,111 C 242.5,78.2 280.7,56.8 323.9,56.8 Z m 0,207.6 c -43.5,0 -79,-35.4 -79,-79 0,-43.6 35.4,-79 79,-79 43.6,0 79,35.4 79,79 0,43.6 -35.4,79 -79,79 z M 195.1,185.5 c 0,-21.7 5.4,-42.1 14.9,-60.1 l 22.4,38.7 c -1.6,6.9 -2.5,14 -2.5,21.3 0,51.9 42.2,94 94,94 2.7,0 5.3,-0.2 7.9,-0.4 l -21.6,34.4 C 245.6,306.7 195.1,251.9 195.1,185.5 Z m 132.2,128.6 24.3,-38.8 C 390,263.5 418,227.3 418,185.1 418,166 412.2,148 402.4,133 h 39.5 c 7,16 11,33.7 11,52.1 -0.1,69.9 -56.2,127.2 -125.6,129 z"
         id="path82"
         inkscape:connector-curvature="0"
         style="fill:#c6050e;fill-opacity:1" /><g
         id="g90"
         transform="translate(3.8493536)"><path
           d="M 277.9,205.6 V 230 c 48,30.1 83,0 83,0 v -24.4 c -41,38.2 -83,0 -83,0 z"
           id="path84"
           inkscape:connector-curvature="0"
           style="fill:#c6050e;fill-opacity:1" /><path
           d="m 277.9,168 v 24.4 c 48,30.1 83,0 83,0 V 168 c -41,38.2 -83,0 -83,0 z"
           id="path86"
           inkscape:connector-curvature="0"
           style="fill:#c6050e;fill-opacity:1" /><ellipse
           cx="319.79999"
           cy="147.2"
           rx="41.799999"
           ry="24.5"
           id="ellipse88"
           style="fill:#c6050e;fill-opacity:1" /></g></g></g></svg>