<?xml version="1.0" encoding="UTF-8" standalone="no"?>
<!-- Generator: Adobe Illustrator 18.0.0, SVG Export Plug-In . SVG Version: 6.00 Build 0)  -->

<svg
   xmlns:dc="http://purl.org/dc/elements/1.1/"
   xmlns:cc="http://creativecommons.org/ns#"
   xmlns:rdf="http://www.w3.org/1999/02/22-rdf-syntax-ns#"
   xmlns:svg="http://www.w3.org/2000/svg"
   xmlns="http://www.w3.org/2000/svg"
   xmlns:sodipodi="http://sodipodi.sourceforge.net/DTD/sodipodi-0.dtd"
   xmlns:inkscape="http://www.inkscape.org/namespaces/inkscape"
   version="1.1"
   id="Layer_1"
   x="0px"
   y="0px"
   viewBox="0 0 287.70001 287.60002"
   enable-background="new 0 0 639 524.6"
   xml:space="preserve"
   sodipodi:docname="redg-logo4.svg"
   width="287.70001"
   height="287.60001"
   inkscape:version="0.92.1 r15371"><metadata
     id="metadata101"><rdf:RDF><cc:Work
         rdf:about=""><dc:format>image/svg+xml</dc:format><dc:type
           rdf:resource="http://purl.org/dc/dcmitype/StillImage" /><dc:title></dc:title></cc:Work></rdf:RDF></metadata><defs
     id="defs99" /><sodipodi:namedview
     pagecolor="#ffffff"
     bordercolor="#666666"
     borderopacity="1"
     objecttolerance="10"
     gridtolerance="10"
     guidetolerance="10"
     inkscape:pageopacity="0"
     inkscape:pageshadow="2"
     inkscape:window-width="1920"
     inkscape:window-height="1018"
     id="namedview97"
     showgrid="false"
     fit-margin-top="0"
     fit-margin-left="0"
     fit-margin-right="0"
     fit-margin-bottom="0"
     inkscape:zoom="1.6221884"
     inkscape:cx="135.39307"
     inkscape:cy="61.760177"
     inkscape:window-x="1912"
     inkscape:window-y="-8"
     inkscape:window-maximized="1"
     inkscape:current-layer="g92" /><g
     id="g94"
     transform="translate(-180.1,-41.7)"><g
       id="g92"><path
         style="fill:#c6050e;fill-opacity:1"
         d="m 322.18164,43.710938 c -50.00671,0.09907 -98.67685,29.370069 -122.58201,73.639622 -25.50996,45.41935 -22.89249,104.35025 6.75975,147.38772 26.51883,40.00992 74.66367,64.57854 122.28268,62.48342 51.0742,-1.08884 99.97401,-32.72161 122.40482,-78.84475 19.93881,-39.31468 19.57873,-88.16529 -1.14649,-127.40234 C 426.69825,73.438542 375.04794,42.445149 322.18164,43.710938 Z m 1.71875,11.089843 c 45.34803,-0.505367 89.59593,24.988705 112.3125,64.166019 4.59552,6.00073 -8.94572,1.75638 -12.71289,3.0332 -11.21754,-0.42162 -23.14159,0.83132 -33.93164,-0.60352 -27.09951,-29.199956 -73.27134,-36.044884 -108.01875,-17.43446 -18.92435,9.76237 -33.89918,26.29043 -42.39336,45.81337 -7.47839,-12.9666 -14.95751,-25.93276 -22.4375,-38.89844 23.91723,-34.639771 64.99979,-56.436501 107.18164,-56.076169 z m 0,49.599609 c 35.63239,-0.61116 69.41196,25.31523 78.19103,59.82462 9.41375,32.85997 -4.91307,70.56872 -33.77036,88.89526 -29.15877,19.86192 -71.12614,17.04827 -97.39333,-6.49722 -26.52514,-22.21863 -35.60615,-62.19399 -21.24582,-93.67795 12.38255,-29.01085 42.63731,-48.91563 74.21848,-48.54471 z m -112.16992,19.99805 c 7.59773,13.12561 15.19489,26.25155 22.79297,39.37695 -9.29685,35.88536 6.14209,76.41219 37.01125,97.22993 18.53331,13.0221 41.79113,18.48493 64.06687,15.70366 -8.12552,12.93848 -16.24985,25.8777 -24.375,38.81641 -47.00697,-3.9947 -90.0722,-35.90028 -107.96679,-79.48828 -15.64633,-36.59958 -12.97852,-80.20096 6.64453,-114.79492 0.60872,1.05208 1.21744,2.10416 1.82617,3.15625 z M 402.40039,131 c 13.60612,0 27.21224,0 40.81836,0 18.54851,40.18113 14.69569,89.608 -10.14453,126.27539 -23.65664,36.28586 -66.10412,59.2682 -109.46094,58.94531 9.23048,-14.14009 17.62819,-29.35295 27.37891,-42.82617 38.21539,-11.18438 66.05455,-49.60644 64.99754,-89.3144 -0.0786,-18.72969 -6.41296,-37.44446 -17.24754,-53.08013 1.2194,0 2.4388,0 3.6582,0 z"
         id="path82"
         inkscape:connector-curvature="0" /><g
         id="g90"
         transform="matrix(0.9263499,0,0,0.9263499,27.398971,13.480832)"><path
           d="M 277.9,205.6 V 230 c 48,30.1 83,0 83,0 v -24.4 c -41,38.2 -83,0 -83,0 z"
           id="path84"
           inkscape:connector-curvature="0"
           style="fill:#c6050e;fill-opacity:1" /><path
           d="m 277.9,168 v 24.4 c 48,30.1 83,0 83,0 V 168 c -41,38.2 -83,0 -83,0 z"
           id="path86"
           inkscape:connector-curvature="0"
           style="fill:#c6050e;fill-opacity:1" /><ellipse
           cx="319.79999"
           cy="147.2"
           rx="41.799999"
           ry="24.5"
           id="ellipse88"
           style="fill:#c6050e;fill-opacity:1" /></g></g></g></svg>